<svg xmlns="http://www.w3.org/2000/svg" width="782" height="341">
  <defs>
    <linearGradient id="a" x1="100%" x2="4.2%" y1="97.4%" y2="30%">
      <stop stop-color="#EEE" offset="0%"/>
      <stop stop-color="#EEE" stop-opacity="0" offset="100%"/>
    </linearGradient>
  </defs>
  <g fill="none" fill-rule="evenodd" opacity=".5">
    <path stroke="#50E3C2" d="M605.5 86.7V281l47 2.2V73l-47 13.7z"/>
    <path stroke="#50E3C2" d="M652.5 73l.6-.2-.5-.4v.6zm0 207.4v3.3h1l-.6-2-.5-1.3zm-34-79.7l-.8-.3h.2l-.4 1h-.2.2c.3 0 .4.2.5.2h.4c.4-.2.4-.2.3-.8zm-7-2.5h-.3l.3.3v-.3zm-6-102.4h-.5l.4.4v-.4zm0-9v-.4l-.5.5.4-.2zm5.7-2zm0 0L652.5 73v207.4l-.5-1.8-22.6-74.2h-.2l-10.4-3.6h-.2c0-.2-.2-.2-.4-.3l-6.7-2.3V97.8h-.3l-2-.8c-1.6-.6-2.5-1-3.8-1.2v-3.6-.4-5l5.8-2z"/>
    <path stroke="#50E3C2" d="M652.5 74v209l47-8.2V142.5l-47-68.5zM317.5 41.6V244h61V1.2l-61 40.3zM379.5 1.3V239h62V41.5l-62-40.3z"/>
    <path stroke="#50E3C2" d="M307.7 81.2l59.7 258.6 261-49.7v-84L307.8 81.2z"/>
    <path stroke="#50E3C2" d="M458.2 322.5c32.2-6 89-17 170.3-32.4v-84l-75.8-29.7V286.6h-.4c-5.5 1-22 3-50.6 6.4h-.8l-12.2 1.5-11.5 1.4-19 2.2c-5.7 0-46-2.5-60.6-3.8l25 11.7c3 1.6 4 2 4 2.4h.4c.7.4 1.7 1 3.7 1.8l27.5 12.3zM186.7 151.4l11 51.3 20.8 14.7 2 89.6 147 32.7-5.7-148.6-34.2-23.4-20-86.5-121 70.4z"/>
    <path stroke="#979797" d="M199.5 204l17.6 13.5L361.5 190 328.7 169l-129.2 35z"/>
    <path stroke="#50E3C2" d="M457.5 40.3v257.5l95-11V105.7l-95-65.3z"/>
    <path stroke="#50E3C2" d="M457.5 40.3v256l95-190.8-95-65.2zM395.5 69.7V293l61 4.8V40.2l-61 29.5z"/>
    <path stroke="url(#a)" d="M787.5 79v221.5l75-5.8V126.4l-75-47.5z" transform="translate(-319.988 -16.637)"/>
    <path stroke="#50E3C2" d="M467.5 129l75-19.3V279l-75-3.2V129zM199.7 157l6.2 30.3 17-6-6.5-32.8-16.8 8.5z"/>
    <path stroke="#979797" d="M200 157.8l6 29.8 17.6-6.5-4.4-19.2-19.2-4z"/>
    <g>
      <path stroke="#50E3C2" d="M232.3 140l7.7 34.4 20.2-7-10.4-35.8-17.5 8.4z"/>
      <path stroke="#979797" d="M232.3 140.7L240 174l19.6-6.8-5.4-21.4-22-5z"/>
    </g>
    <g stroke-linecap="square">
      <path stroke="#F00" stroke-width="2" d="M219.5 147l33 158"/>
      <path stroke="#50E3C2" d="M367.5 113l413 145M779.5 260l-412 79"/>
      <path stroke="#50E3C2" stroke-width="2" d="M2.5 264l369.2-135.5M350 320.2L2.4 258M2.5 258L309 82M2.5 258l456 38M779.5 258l-321-219M780.5 259l-549.2 40.7M1.5 257L653 284.4M779.5 259L219.8 145.3M779.5 258l-126-185"/>
      <path stroke="#E35050" stroke-width="2" d="M354 160.3L2.6 256"/>
      <path stroke="#50E3C2" stroke-width="2" d="M653.5 269l-650-12M779.5 259l-126 10"/>
      <path stroke="#F00" d="M779.5 259l-316 25M780.5 259l-313-196M469.6 97.4L1.4 258 423.7 41.7z"/>
      <path stroke="#F8FF00" stroke-width="2" d="M313.5 110l13 58"/>
      <path stroke="#FFF600" d="M161.5 211l37 26.5"/>
    </g>
  </g>
</svg>
