<svg xmlns="http://www.w3.org/2000/svg" width="1227" height="373" xmlns:xlink="http://www.w3.org/1999/xlink">
  <defs>
    <linearGradient id="a" x1="100%" x2="79.9%" y1="0%" y2="43.4%">
      <stop stop-color="#4C4284" offset="0%"/>
      <stop stop-color="#453C7B" offset="50.9%"/>
      <stop stop-color="#251F4D" offset="100%"/>
    </linearGradient>
    <path id="b" d="M931 101l42-12v211.4l-24-79-18-6.2V114.8c-2-.7-3.4-1.3-6-2V103l6-2z"/>
    <linearGradient id="c" x1="0%" y1="0%" y2="96.2%">
      <stop stop-color="#A4A4A4" offset="0%"/>
      <stop stop-color="#A1A1A1" stop-opacity="0" offset="100%"/>
    </linearGradient>
    <path id="d" d="M637 58l62-41v244h-62z"/>
    <linearGradient id="e" x1="0%" x2="123.2%" y1="0%" y2="135.9%">
      <stop stop-color="#EEE" offset="0%"/>
      <stop stop-color="#3E3E3E" stop-opacity="0" offset="100%"/>
    </linearGradient>
    <linearGradient id="f" x1="0%" x2="157.4%" y1="18.3%" y2="64.4%">
      <stop stop-color="#EEE" offset="0%"/>
      <stop stop-color="#3E3E3E" offset="100%"/>
    </linearGradient>
    <linearGradient id="g" x1="0%" x2="157.4%" y1="18.3%" y2="64.4%">
      <stop stop-color="#8A8A8A" offset="0%"/>
      <stop stop-color="#251F4D" offset="100%"/>
    </linearGradient>
    <linearGradient id="h" x1="75%" y1="23.3%" y2="100%">
      <stop stop-color="#50E3C2" offset="0%"/>
      <stop stop-color="#686580" offset="100%"/>
    </linearGradient>
    <linearGradient id="i" x1="0%" x2="83.5%" y1="0%" y2="37.4%">
      <stop stop-color="#EEE" offset="0%"/>
      <stop stop-color="#251F4D" offset="100%"/>
    </linearGradient>
    <path id="j" d="M715 86l62-30v259l-62-5z"/>
    <linearGradient id="l" x1="100%" x2="4.2%" y1="97.4%" y2="30%">
      <stop stop-color="#EEE" offset="0%"/>
      <stop stop-color="#EEE" stop-opacity="0" offset="100%"/>
    </linearGradient>
    <path id="k" d="M787 78l76 48v169l-76 6z"/>
    <linearGradient id="m" x1=".3%" x2="77.5%" y1="49.8%" y2="49.8%">
      <stop stop-color="#50E3C2" stop-opacity="0" offset="0%"/>
      <stop stop-color="#50E3C2" offset="100%"/>
    </linearGradient>
    <linearGradient id="n" x1="20.6%" y1="50%" y2="50%">
      <stop stop-color="#251F4D" offset="0%"/>
      <stop stop-color="#0C072A" offset="100%"/>
    </linearGradient>
  </defs>
  <g fill="none" fill-rule="evenodd">
    <path fill="url(#a)" d="M1226 2v370H0L678.5.2" transform="translate(.012 .363)"/>
    <path fill="#50E3C2" fill-opacity=".5" d="M925 103.4l48-14v211.3l-48-2.3"/>
    <g transform="translate(.012 .363)">
      <use fill="#50E3C2" xlink:href="#b"/>
      <path stroke="#50E3C2" d="M972.5 89.7l.6-.2-.5-.5v.7zm0 207.3v3.4l1-.2-.6-2-.5-1.2zm-34-79.6l-.8-.4.2.2-.4.8h-.2.2l.5.2h.4c.4 0 .4 0 .3-.7zm-7-2.6h-.3l.3.4v-.4zm-6-102.4h-.5l.4.4v-.4zm0-9v-.4l-.5.5h.4zm5.7-2zm0 0l41.3-11.7V297l-.5-1.7-22.6-74.2h-.2l-10.4-3.6h-.2l-.4-.2-6.7-2.4V114.4h-.3l-2-.8-3.8-1.2v-3.6-.3-5l5.8-2z"/>
    </g>
    <path fill="url(#c)" d="M972 89l48 70v133l-48 8.3" transform="translate(.012 .363)"/>
    <g transform="translate(.012 .363)">
      <use fill="#50E3C2" xlink:href="#d"/>
      <path stroke="#50E3C2" d="M637.5 58.3v202.2h61V18l-61 40.3z"/>
    </g>
    <path fill="url(#e)" d="M699 17l63 41v198h-63" transform="translate(.012 .363)"/>
    <path fill="url(#f)" d="M627 97l322 125.3v85L687 357" transform="translate(.012 .363)"/>
    <path fill="url(#g)" d="M778 339.6c-63.3-28.4 0 0-63.2-29.4 13 1.5 58.8 4.2 63.4 4.2 24.3-3 83-10 94-11.6V192.2l76.8 30v85l-171 32.4z" transform="translate(.012 .363)"/>
    <path fill="url(#h)" d="M506 167.8L628 97l60 260-148-33" transform="translate(.012 .363)"/>
    <path fill="#251F4D" d="M777 56.4l96 66v182l-96 11"/>
    <path fill="url(#i)" d="M777 56l96 66-96 193" transform="translate(.012 .363)"/>
    <g transform="translate(.012 .363)">
      <use fill="#50E3C2" xlink:href="#j"/>
      <path stroke="#50E3C2" d="M715.5 86.3v223.2l61 5V56.8l-61 29.5z"/>
    </g>
    <g transform="translate(.012 .363)">
      <use fill="#251F4D" xlink:href="#k"/>
      <path stroke="url(#l)" d="M787.5 79v221.5l75-5.8V126.4l-75-47.5z"/>
    </g>
    <path fill="url(#m)" d="M788 146l74-19v168l-74-3" transform="translate(.012 .363)"/>
    <path fill="url(#f)" d="M0 6.8l11.5-6L16 23 4 27" transform="translate(519.012 167.363)"/>
    <path fill="url(#n)" fill-opacity=".6" d="M.2 7l13 2.8 3 13-12 4.5" transform="translate(519.012 167.363)"/>
    <g>
      <path fill="url(#f)" d="M0 6.8L12 1l7 24L5 29.7" transform="translate(540.012 156.363)"/>
      <path fill="url(#n)" fill-opacity=".6" d="M0 7L15 10.3l3.7 14.4-13.3 4.7" transform="translate(540.012 156.363)"/>
    </g>
  </g>
</svg>
